<svg width="120" height="22" viewBox="0 0 120 22" fill="none" xmlns="http://www.w3.org/2000/svg">
<path d="M4.65721 10.5521H4.70839C5.60401 8.94004 7.13935 8.22354 8.95618 8.22354H9.8518V12.7016C9.21207 12.3434 8.59793 12.2666 7.88144 12.2666C5.29694 12.2666 4.65721 13.9811 4.65721 16.2329V21.5299H0V8.40267H4.65721V10.5521Z" fill="#6706CE"/>
<path d="M26.6702 14.9791C26.6702 19.4316 22.9854 21.9649 18.7632 21.9649C14.5666 21.9649 10.8561 19.4572 10.8561 14.9791C10.8561 10.501 14.541 7.96771 18.7632 7.96771C22.9854 7.96771 26.6702 10.501 26.6702 14.9791ZM15.7692 14.9791C15.7692 16.6424 16.8696 17.9219 18.7632 17.9219C20.6568 17.9219 21.7571 16.6424 21.7571 14.9791C21.7571 13.367 20.6568 12.0108 18.7632 12.0108C16.8696 12.0108 15.7692 13.367 15.7692 14.9791Z" fill="#6706CE"/>
<path d="M28.0946 0.290924H32.7518V9.68212C33.7498 8.53061 35.3107 7.96765 36.8205 7.96765C40.71 7.96765 43.3969 11.1919 43.3969 14.9535C43.3969 18.7407 40.6844 21.9649 36.7693 21.9649C35.234 21.9649 33.6474 21.3763 32.803 20.0713H32.7518V21.5299H28.0946V0.290924V0.290924ZM32.5983 14.9791C32.5983 16.6423 33.6986 17.9218 35.5922 17.9218C37.4858 17.9218 38.5861 16.6423 38.5861 14.9791C38.5861 13.3669 37.4858 12.0107 35.5922 12.0107C33.6986 12.0107 32.5983 13.3669 32.5983 14.9791Z" fill="#6706CE"/>
<path d="M60.5097 14.9791C60.5097 19.4316 56.8249 21.9649 52.6027 21.9649C48.4061 21.9649 44.6957 19.4572 44.6957 14.9791C44.6957 10.501 48.3805 7.96771 52.6027 7.96771C56.8249 7.96771 60.5097 10.501 60.5097 14.9791ZM49.6088 14.9791C49.6088 16.6424 50.7091 17.9219 52.6027 17.9219C54.4963 17.9219 55.5966 16.6424 55.5966 14.9791C55.5966 13.367 54.4963 12.0108 52.6027 12.0108C50.7091 12.0108 49.6088 13.367 49.6088 14.9791Z" fill="#6706CE"/>
<path d="M67.777 21.5299H63.1198V12.2411H61.4821V8.40269H63.1198V6.7394C63.1198 4.92258 63.1709 3.59195 64.4504 2.13337C65.6019 0.777148 67.2652 0.0350647 69.0308 0.0350647C69.7473 0.0350647 70.3871 0.16301 71.0268 0.495668V4.51315C70.4894 4.28285 70.0032 4.07814 69.3891 4.07814C68.1864 4.07814 67.777 4.79463 67.777 6.2788V8.40269H71.0268V12.2411H67.777V21.5299V21.5299Z" fill="#6706CE"/>
<path d="M77.3728 21.5299H72.7156V0.290924H77.3728V21.5299Z" fill="#6706CE"/>
<path d="M94.6413 14.9791C94.6413 19.4316 90.9565 21.9649 86.7343 21.9649C82.5377 21.9649 78.8273 19.4572 78.8273 14.9791C78.8273 10.501 82.5121 7.96771 86.7343 7.96771C90.9565 7.96771 94.6413 10.501 94.6413 14.9791ZM83.7404 14.9791C83.7404 16.6424 84.8407 17.9219 86.7343 17.9219C88.6279 17.9219 89.7282 16.6424 89.7282 14.9791C89.7282 13.367 88.6279 12.0108 86.7343 12.0108C84.8407 12.0108 83.7404 13.367 83.7404 14.9791Z" fill="#6706CE"/>
<path d="M102.19 15.5164L105.491 8.40268H108.255L111.556 15.5164L114.857 8.40268H120L113.142 21.5299H110.123L106.873 14.3393L103.623 21.5299H100.603L93.7456 8.40268H98.9146L102.19 15.5164Z" fill="#6706CE"/>
</svg>
